<?xml version="1.0" standalone="no"?>
<!DOCTYPE svg PUBLIC "-//W3C//DTD SVG 20010904//EN"
 "http://www.w3.org/TR/2001/REC-SVG-20010904/DTD/svg10.dtd">
<svg version="1.0" xmlns="http://www.w3.org/2000/svg"
 width="300.000000pt" height="420.000000pt" viewBox="0 0 300.000000 420.000000"
 preserveAspectRatio="xMidYMid meet">
<metadata>
Created by potrace 1.10, written by Peter Selinger 2001-2011
</metadata>
<g transform="translate(0.000000,420.000000) scale(0.100000,-0.100000)"
fill="#000000" stroke="none">
<path d="M1350 3653 c-9 -7 -20 -10 -22 -7 -3 2 -18 0 -34 -7 -16 -6 -40 -13
-53 -15 -13 -3 -30 -11 -38 -19 -8 -8 -23 -15 -32 -15 -10 0 -24 -7 -31 -15
-7 -8 -17 -15 -23 -15 -17 0 -129 -119 -164 -174 -63 -101 -102 -201 -123
-316 -8 -48 -7 -245 2 -270 13 -35 39 -163 34 -168 -6 -5 -39 9 -67 30 -9 6
-24 8 -33 5 -31 -12 -16 -286 18 -327 7 -8 24 -37 37 -63 29 -60 67 -83 110
-68 22 8 31 7 33 -2 2 -7 14 -50 26 -97 12 -47 26 -89 30 -95 18 -22 32 -149
35 -310 1 -93 6 -183 10 -200 13 -46 106 -195 176 -282 92 -112 272 -293 293
-293 44 0 251 189 347 316 80 107 168 274 144 274 -13 0 -15 31 -14 203 0 214
2 233 46 397 l28 105 47 12 c60 14 64 17 72 49 4 14 18 43 32 64 25 37 25 41
21 193 -6 195 -9 201 -70 147 -43 -37 -51 -38 -43 -2 3 15 13 59 21 97 15 68
20 230 10 325 -7 63 -34 147 -65 200 -14 25 -29 53 -33 63 -3 9 -11 17 -17 17
-5 0 -10 9 -10 20 0 28 -35 65 -110 115 -36 24 -75 53 -87 64 -12 12 -31 21
-43 21 -11 0 -47 9 -79 20 -97 32 -346 48 -381 23z m146 -28 c-6 -18 5 -20 22
-3 8 8 15 8 27 -2 10 -8 19 -10 23 -4 4 5 15 10 24 12 12 2 16 -2 12 -13 -3
-8 -1 -15 5 -15 6 0 11 5 11 11 0 6 10 9 23 7 12 -2 21 -9 19 -16 -2 -10 2
-10 18 0 17 11 22 10 30 -2 5 -8 10 -11 10 -6 0 6 6 2 13 -8 7 -10 20 -17 28
-15 7 1 27 -3 42 -9 16 -7 31 -12 35 -12 4 0 20 -11 36 -25 16 -14 33 -25 39
-25 5 0 7 -6 4 -13 -3 -9 2 -13 16 -12 27 3 47 -12 47 -35 0 -10 10 -20 21
-23 15 -4 20 -11 15 -22 -3 -9 -2 -13 4 -10 6 3 10 -3 10 -14 0 -12 3 -21 8
-21 11 0 32 -52 25 -63 -4 -6 0 -8 9 -5 11 5 19 -5 28 -35 7 -23 16 -54 21
-69 8 -30 1 -36 -19 -16 -9 9 -12 9 -12 0 0 -7 11 -17 24 -22 23 -8 24 -12 14
-46 -6 -24 -6 -39 0 -43 6 -3 10 -19 11 -36 0 -16 1 -37 2 -45 0 -8 0 -26 -1
-40 -2 -14 1 -34 5 -44 6 -13 5 -17 -2 -13 -13 8 -29 -148 -24 -239 1 -33 -5
-117 -14 -187 -9 -70 -14 -131 -11 -136 3 -5 -1 -14 -9 -21 -8 -7 -12 -17 -9
-22 4 -6 2 -13 -3 -17 -12 -8 -46 -80 -49 -106 -2 -11 -6 -31 -9 -45 -4 -14
-8 -33 -9 -44 -1 -10 -11 -23 -20 -28 -15 -8 -16 -12 -5 -19 11 -7 11 -11 1
-17 -16 -11 -4 -45 12 -35 7 4 7 1 -1 -9 -7 -8 -10 -17 -8 -20 3 -3 -12 -29
-34 -59 -40 -52 -50 -84 -12 -38 11 13 21 22 24 19 3 -3 8 -50 11 -105 3 -55
5 -100 6 -100 0 0 3 -34 5 -75 4 -68 2 -80 -27 -140 -18 -36 -47 -83 -64 -106
-18 -23 -50 -63 -70 -90 -74 -98 -264 -265 -293 -257 -23 6 -101 70 -101 84 0
5 -26 35 -58 67 -32 31 -71 75 -87 97 -16 22 -34 45 -40 50 -42 37 -137 189
-150 240 -5 17 -9 96 -9 177 -1 159 4 175 45 132 43 -46 31 -14 -14 35 -41 46
-45 55 -44 100 1 34 -5 54 -17 66 -10 10 -15 26 -13 36 3 11 1 19 -3 19 -4 0
-13 14 -19 30 -7 22 -7 30 2 30 7 0 4 6 -5 14 -10 7 -15 16 -11 19 3 4 1 7 -5
7 -7 0 -12 7 -12 15 0 8 -8 19 -18 24 -10 5 -19 22 -20 38 -1 15 -14 79 -28
141 -13 62 -27 143 -30 180 -6 83 -10 118 -23 207 -19 130 -20 150 -11 191 5
23 11 56 14 75 2 19 10 48 17 64 7 17 11 38 10 48 -1 9 4 17 11 17 7 0 35 34
63 76 70 108 175 185 283 209 17 3 32 10 32 15 0 14 -46 17 -59 3 -7 -8 -19
-12 -26 -9 -8 3 -15 0 -17 -5 -2 -6 -10 -11 -18 -13 -30 -6 -142 -65 -125 -66
11 0 -36 -39 -47 -40 -16 0 -7 23 16 45 18 17 21 26 13 34 -10 10 -5 13 19 10
3 0 17 16 30 35 27 39 33 42 54 24 13 -11 13 -11 3 2 -18 19 -16 33 3 26 8 -3
13 -2 9 3 -9 16 50 40 70 28 15 -8 17 -7 12 6 -7 17 19 32 29 16 3 -6 11 -3
20 8 7 10 14 15 14 11 0 -4 24 1 53 12 28 10 69 18 89 16 20 -2 43 1 50 5 18
12 21 11 14 -6z m-530 -327 c-9 -5 -14 -13 -11 -18 3 -4 -2 -10 -10 -14 -8 -3
-15 -12 -15 -21 0 -8 -4 -15 -10 -15 -15 0 -12 9 11 41 11 16 18 33 15 38 -3
5 3 7 15 4 19 -5 19 -7 5 -15z m1248 -673 c-15 -37 -15 -38 2 -25 10 9 15 10
10 3 -4 -7 -2 -22 5 -34 7 -13 7 -24 2 -28 -13 -8 -23 -51 -12 -51 5 0 11 -11
15 -25 7 -28 -20 -80 -36 -70 -6 4 -10 2 -10 -3 0 -6 7 -12 15 -16 8 -3 15
-13 15 -21 0 -9 -4 -13 -10 -10 -5 3 -21 -12 -35 -35 -14 -22 -29 -40 -34 -40
-5 0 -17 -3 -26 -6 -19 -8 -19 -20 7 168 6 49 15 83 19 76 6 -9 10 -8 15 5 3
10 17 17 33 18 23 0 24 1 6 8 -11 5 -28 5 -37 0 -26 -14 -28 -12 -28 34 0 40
4 46 43 74 23 17 45 28 50 24 4 -4 0 -25 -9 -46z m-1381 -10 c38 -16 47 -31
47 -77 0 -23 -4 -29 -15 -24 -8 3 -28 0 -43 -6 -44 -18 -54 -18 -47 0 26 63
26 71 10 96 -21 31 -8 34 48 11z m40 -137 c4 -10 8 -9 17 2 9 12 11 8 7 -18
-2 -18 0 -35 5 -38 4 -3 8 -10 8 -16 0 -7 -4 -7 -13 1 -22 18 -29 -1 -8 -23
18 -20 51 -103 51 -130 0 -8 -14 -16 -31 -18 -23 -4 -33 0 -41 15 -8 16 -7 23
8 34 19 14 21 13 -36 17 -8 1 -16 9 -18 20 -5 25 19 39 33 19 7 -9 18 -14 25
-11 13 4 -26 35 -52 40 -35 8 -55 72 -33 107 9 15 72 14 78 -1z"/>
<path d="M1484 3529 c-3 -6 -12 -8 -19 -5 -7 2 -16 -2 -19 -10 -4 -11 1 -13
22 -9 46 8 128 8 142 0 11 -7 53 -15 88 -18 6 0 12 -4 12 -8 0 -3 12 -9 28
-12 61 -11 78 -18 143 -58 38 -22 71 -49 74 -59 8 -26 42 -54 50 -41 3 6 -1
11 -9 11 -9 0 -15 3 -15 8 3 19 -2 45 -7 39 -7 -7 -22 7 -47 43 -11 15 -17 19
-17 10 0 -9 -3 -11 -8 -4 -11 15 -109 64 -116 57 -3 -3 -12 -1 -19 5 -8 7 -17
9 -20 5 -4 -3 -7 -1 -7 5 0 7 -3 11 -7 11 -23 -4 -54 2 -49 9 2 4 -11 6 -30 4
-19 -2 -34 0 -34 5 0 5 -14 10 -32 11 -17 2 -47 4 -65 7 -18 2 -35 -1 -39 -6z"/>
<path d="M1320 3520 c13 -9 13 -12 -2 -24 -10 -7 -18 -17 -18 -21 0 -4 6 -3
13 3 11 9 45 18 101 26 11 1 22 8 24 15 4 12 -26 8 -75 -10 -17 -6 -23 -5 -23
6 0 8 -8 15 -17 15 -16 0 -16 -2 -3 -10z"/>
<path d="M1791 2826 c2 -2 31 -6 64 -9 36 -3 52 -2 40 3 -19 8 -113 14 -104 6z"/>
<path d="M1130 2803 c-47 -17 -100 -48 -100 -59 0 -8 19 -1 51 19 42 26 62 31
109 32 32 0 53 3 47 7 -14 9 -84 9 -107 1z"/>
<path d="M1734 2749 c-23 -11 -50 -29 -59 -40 -18 -19 -17 -19 26 -18 38 1 40
2 14 8 l-29 6 27 18 c36 23 45 22 49 -9 3 -23 8 -27 46 -30 38 -4 44 -1 52 21
11 28 22 31 39 11 10 -12 8 -17 -9 -26 -32 -17 -19 -21 23 -6 l37 12 -21 23
c-49 52 -127 64 -195 30z"/>
<path d="M1137 2735 c-57 -20 -122 -88 -68 -70 10 3 23 -1 30 -9 7 -8 20 -12
28 -9 13 5 12 8 -5 14 -20 8 -31 38 -14 40 4 0 18 2 31 5 21 4 23 1 17 -22 -7
-26 -6 -26 31 -19 48 9 53 12 53 35 0 28 15 32 41 11 19 -16 21 -21 9 -24 -8
-3 -22 -8 -30 -10 -24 -8 32 -6 60 2 24 7 23 9 -24 39 -55 35 -96 40 -159 17z"/>
<path d="M1696 2660 c-47 -17 117 -48 181 -34 34 7 28 9 -49 14 -48 4 -93 12
-100 17 -7 6 -22 7 -32 3z"/>
<path d="M1289 2658 c-9 -32 -6 -35 22 -24 25 9 27 12 12 18 -19 7 -33 9 -34
6z"/>
<path d="M1191 2619 c-62 -12 -66 -23 -6 -14 49 7 100 25 65 24 -8 -1 -35 -5
-59 -10z"/>
<path d="M1678 2352 c-6 -21 -9 -22 -28 -12 -32 17 -87 4 -106 -25 -20 -31
-29 -31 -67 1 -27 22 -38 25 -79 22 -27 -3 -52 -8 -56 -12 -11 -11 37 -46 62
-45 21 0 21 0 -1 11 -13 6 -23 17 -23 24 0 16 70 7 85 -11 6 -6 20 -17 33 -24
19 -10 25 -8 47 14 15 17 38 29 64 32 46 6 58 -12 16 -23 -14 -3 -25 -10 -25
-15 0 -13 56 10 75 31 9 10 15 27 13 37 -3 15 -5 14 -10 -5z"/>
<path d="M1457 2200 c16 -15 69 -17 108 -5 39 12 39 12 -38 12 -43 0 -74 -3
-70 -7z"/>
<path d="M1368 2140 c-20 -11 -41 -27 -46 -37 -7 -11 -21 -16 -46 -15 -48 2
-46 -11 3 -24 26 -7 73 -8 138 -2 106 9 103 9 166 8 23 -1 61 2 85 5 24 3 64
7 89 10 26 3 52 10 57 16 13 13 -36 9 -206 -15 -15 -2 -44 2 -64 9 -31 11 -40
10 -52 -1 -9 -10 -39 -14 -93 -14 -74 0 -79 1 -70 18 11 20 76 48 126 55 24 3
23 4 -10 5 -22 1 -56 -8 -77 -18z"/>
<path d="M1685 1999 c-53 -25 -71 -29 -153 -29 -66 0 -108 6 -147 19 -44 16
-55 17 -55 6 0 -24 115 -52 205 -49 83 2 182 31 206 60 20 24 7 23 -56 -7z"/>
<path d="M1300 1697 c20 -18 115 -54 165 -62 22 -3 49 -8 60 -11 15 -4 17 -3
5 4 -8 5 -49 17 -90 26 -41 9 -90 25 -108 36 -37 23 -53 26 -32 7z"/>
<path d="M2046 1653 c3 -16 7 -34 10 -40 5 -18 -6 -44 -17 -37 -7 4 -7 -12 1
-46 0 -3 8 7 16 23 16 29 10 127 -7 127 -5 0 -7 -12 -3 -27z"/>
<path d="M2152 1488 c11 -29 22 -71 25 -93 8 -67 -22 -192 -71 -297 -25 -54
-46 -101 -46 -106 0 -4 -28 -51 -62 -104 -35 -54 -85 -133 -113 -177 -27 -45
-56 -83 -64 -86 -14 -6 -63 43 -182 185 -31 36 -63 66 -72 68 -22 4 -66 -29
-67 -50 0 -21 12 -23 43 -7 20 9 21 9 4 -4 -16 -13 -16 -15 -1 -21 21 -8 42 9
46 37 3 20 4 20 22 -7 18 -28 18 -30 0 -43 -10 -7 -26 -11 -35 -8 -19 6 -34
-9 -24 -25 4 -6 16 -5 33 4 31 15 52 11 52 -10 0 -8 7 -14 15 -14 8 0 15 -6
15 -14 0 -7 10 -16 22 -19 12 -4 19 -9 16 -12 -6 -6 37 -55 48 -54 3 0 13 -8
22 -18 21 -23 42 -23 66 0 11 9 23 17 28 17 4 0 8 6 8 14 0 8 6 21 13 28 8 7
26 34 42 58 66 107 89 140 96 140 3 0 9 9 12 21 3 12 10 18 16 14 7 -3 8 0 5
10 -4 8 -2 21 3 28 5 6 27 53 48 103 33 80 41 91 59 86 21 -4 21 -4 1 12 -14
11 -16 18 -9 23 6 5 11 19 10 33 -1 17 4 24 13 22 12 -3 12 0 2 12 -7 8 -9 20
-5 27 4 7 7 25 6 41 0 15 3 26 7 24 4 -3 12 4 19 15 10 16 10 21 -3 25 -25 10
-17 21 13 18 l27 -4 -27 11 c-16 6 -28 15 -28 20 0 5 12 7 28 4 l27 -5 -27 11
c-36 14 -36 24 1 24 16 0 27 -2 25 -4 -3 -3 12 -13 32 -23 54 -26 81 -23 52 6
-13 12 -193 116 -202 116 -2 0 5 -24 16 -52z"/>
<path d="M876 1510 c-22 -11 -46 -26 -55 -34 -9 -7 -36 -23 -61 -34 -25 -12
-59 -33 -75 -49 -17 -15 -58 -39 -90 -53 -80 -33 -276 -129 -295 -145 -8 -7
-41 -26 -72 -42 -32 -17 -54 -34 -50 -38 4 -5 1 -5 -5 -1 -13 7 -73 -22 -73
-36 0 -4 -8 -8 -17 -8 -25 -1 -53 -24 -53 -44 0 -20 16 -21 24 -1 3 8 13 15
21 15 9 0 13 5 10 10 -4 7 3 8 21 4 16 -4 25 -3 21 3 -3 5 -2 15 4 23 6 10 9
11 9 3 0 -7 5 -13 10 -13 6 0 10 6 10 13 0 7 9 13 21 13 18 0 18 -2 5 -12 -15
-10 -15 -13 1 -25 14 -12 16 -12 11 1 -3 9 0 24 7 34 13 17 14 17 24 -1 8 -14
10 -15 11 -2 0 8 -5 20 -11 26 -7 7 -2 12 17 17 23 6 25 9 13 18 -11 7 -9 9 8
5 13 -3 33 2 45 11 51 37 69 44 84 31 12 -10 13 -9 8 6 -11 27 17 37 39 14 11
-11 21 -18 24 -15 3 3 -2 13 -12 22 -17 17 -17 18 1 25 11 4 15 8 9 9 -15 1
37 29 55 29 13 1 13 0 0 -9 -8 -5 -12 -12 -8 -15 3 -3 13 1 21 10 9 8 20 15
26 15 6 0 11 4 11 10 0 5 -8 7 -17 4 -15 -5 -16 -4 -3 5 11 8 18 7 25 -2 20
-24 51 -36 66 -25 11 8 10 9 -3 4 -24 -7 -24 27 -1 54 18 20 39 28 28 10 -7
-11 0 -12 33 -4 12 4 22 11 22 16 0 5 -4 6 -10 3 -5 -3 -10 -1 -10 4 0 6 11
11 25 11 14 0 29 8 35 20 6 11 16 20 23 20 8 0 7 -4 -3 -11 -12 -9 -11 -10 5
-6 11 3 28 8 38 12 9 4 17 3 17 -2 0 -4 -23 -16 -51 -26 -28 -10 -49 -21 -46
-23 3 -3 22 2 42 10 42 18 55 20 55 7 0 -4 -15 -13 -32 -19 l-33 -11 38 6 c20
3 37 3 37 -1 0 -3 -17 -15 -37 -26 -35 -19 -29 -21 13 -3 12 4 15 2 12 -8 -2
-8 -28 -22 -57 -33 -28 -10 -50 -21 -48 -23 3 -2 30 6 61 18 60 22 83 19 50
-6 -19 -14 -8 -20 19 -9 11 4 13 13 8 32 -4 15 -9 53 -10 84 -2 48 2 60 21 78
51 47 58 54 58 62 0 13 -22 9 -64 -12z"/>
<path d="M894 1425 c-3 -14 -4 -81 -1 -148 4 -98 11 -135 31 -189 14 -38 23
-68 20 -68 -4 0 -2 -6 3 -12 10 -12 34 -79 39 -103 1 -6 16 -42 34 -80 19 -39
33 -78 32 -87 0 -10 7 -22 17 -28 10 -5 28 -28 39 -50 11 -23 24 -41 28 -41 5
-1 8 -5 7 -10 -2 -4 4 -6 12 -3 11 5 14 1 9 -12 -5 -18 -5 -18 10 0 9 11 16
17 16 13 0 -4 10 -1 23 7 29 18 87 29 162 31 63 1 109 18 160 59 26 21 28 26
16 40 -9 11 -18 13 -24 7 -5 -5 -17 -7 -26 -4 -13 4 -13 2 2 -7 9 -6 17 -15
17 -19 0 -12 -45 -40 -72 -45 -13 -3 -25 -5 -28 -6 -3 -2 -8 -2 -12 -1 -5 0
-8 -3 -8 -8 0 -6 -20 -8 -47 -4 -51 6 -66 13 -45 20 7 3 24 17 38 31 22 25 24
25 25 7 0 -13 5 -7 16 17 8 21 19 35 24 32 5 -3 9 0 9 7 0 6 8 9 20 6 12 -3
20 0 20 8 0 7 8 16 17 19 15 6 14 9 -7 20 -23 12 -29 9 -95 -49 -95 -83 -185
-155 -194 -155 -17 0 -43 42 -110 180 -102 212 -160 419 -163 582 -1 37 -3 68
-4 68 -2 0 -6 -11 -10 -25z"/>
<path d="M2360 1401 c0 -5 -10 -12 -22 -14 -21 -4 -21 -4 2 -4 52 -1 61 -3 55
-13 -3 -6 1 -7 10 -4 11 5 18 0 22 -15 4 -16 11 -19 29 -15 17 4 26 1 30 -10
3 -9 10 -16 16 -16 5 0 6 6 3 13 -4 6 6 -2 22 -20 22 -24 34 -31 51 -26 23 6
29 -6 12 -23 -8 -8 -6 -15 4 -23 12 -10 14 -9 9 8 -4 17 -1 21 16 21 16 0 21
-5 19 -20 -2 -10 2 -18 7 -17 6 1 9 5 8 9 -6 16 18 8 24 -8 4 -10 13 -14 28
-10 18 5 24 1 29 -20 4 -14 4 -35 0 -47 -6 -21 -6 -22 9 -2 8 10 12 25 9 33
-4 11 1 13 16 8 12 -3 31 -8 41 -12 13 -3 18 -11 14 -20 -5 -13 -7 -13 -14 -2
-7 11 -10 10 -21 -1 -8 -9 -9 -11 -1 -7 6 3 14 2 17 -3 3 -5 16 -7 27 -4 14 4
25 0 30 -9 5 -10 18 -14 34 -10 16 3 25 0 25 -8 0 -7 7 -10 15 -6 8 3 15 1 15
-4 0 -5 11 -9 25 -8 14 1 25 5 25 9 0 7 -64 39 -133 66 -23 9 -53 24 -67 33
-14 9 -63 35 -110 57 -47 22 -137 66 -200 97 -120 58 -130 62 -130 47z"/>
<path d="M2330 1065 c9 -10 9 -15 1 -15 -16 0 -14 -17 4 -23 8 -4 17 -1 21 5
4 7 3 8 -5 4 -8 -6 -10 0 -5 18 5 20 2 26 -11 26 -14 0 -15 -3 -5 -15z"/>
<path d="M2288 1010 c18 -21 15 -43 -4 -36 -14 5 -15 4 -4 -9 11 -14 14 -13
26 2 13 18 20 52 7 40 -3 -4 -13 -1 -22 5 -13 10 -14 10 -3 -2z"/>
<path d="M2380 990 c0 -6 -4 -9 -8 -6 -5 3 -9 -1 -9 -9 0 -8 8 -17 18 -20 9
-3 27 -21 40 -40 24 -34 39 -40 47 -17 2 7 -4 12 -13 12 -12 0 -15 5 -11 16 4
11 2 15 -8 11 -17 -7 -45 23 -39 40 2 6 -1 14 -6 18 -6 3 -11 1 -11 -5z"/>
<path d="M2286 925 c3 -8 9 -13 14 -12 13 3 140 -104 134 -114 -3 -5 5 -9 17
-9 16 0 20 -5 16 -20 -3 -11 -1 -20 3 -20 5 0 15 -3 24 -6 9 -3 16 -1 16 5 0
13 -113 128 -161 164 -40 30 -72 36 -63 12z"/>
<path d="M758 896 c-10 -7 -15 -15 -12 -18 3 -3 -11 -21 -30 -40 -20 -19 -36
-42 -36 -50 0 -18 -26 -31 -34 -17 -2 5 -3 4 -2 -3 3 -16 -32 -50 -44 -43 -6
4 -10 -6 -11 -22 0 -15 -3 -22 -6 -15 -5 13 -23 7 -23 -9 0 -6 5 -7 10 -4 6 3
10 1 10 -5 0 -6 -7 -13 -15 -16 -8 -4 -15 -12 -15 -19 0 -8 -8 -16 -18 -19
-19 -7 -45 -63 -35 -79 9 -14 33 22 26 39 -3 8 0 14 7 14 6 0 8 5 5 10 -3 6
-1 10 5 10 15 0 41 26 33 34 -4 3 -1 6 5 6 7 0 12 7 12 15 0 8 37 53 83 98 46
45 89 97 95 115 6 18 10 32 9 32 -1 0 -10 -7 -19 -14z"/>
<path d="M810 895 c0 -22 29 -31 43 -14 7 8 8 11 3 7 -12 -9 -37 2 -30 13 3 5
0 9 -5 9 -6 0 -11 -7 -11 -15z"/>
<path d="M716 738 c-53 -57 -99 -113 -103 -125 -3 -13 -10 -23 -16 -23 -6 0
-8 -3 -4 -6 3 -3 -2 -14 -11 -24 -50 -53 -69 -76 -70 -84 0 -5 -4 -12 -9 -15
-5 -3 -1 -14 10 -24 18 -19 19 -18 12 3 -8 24 18 60 43 60 12 0 12 3 2 15 -10
12 -10 15 1 15 8 0 26 20 41 43 16 24 40 57 55 74 16 16 57 62 93 101 36 40
70 72 77 72 7 0 13 5 13 10 0 31 -47 -2 -134 -92z"/>
<path d="M2590 745 c0 -8 3 -15 8 -15 4 0 12 -10 17 -22 6 -13 16 -22 23 -20
7 1 12 -5 12 -14 0 -20 27 -47 39 -39 10 6 -39 61 -51 58 -3 -1 -9 4 -12 13
-3 8 -2 12 4 9 6 -3 10 -1 10 4 0 6 -7 11 -15 11 -18 0 -20 16 -2 23 6 3 2 6
-10 6 -14 1 -23 -5 -23 -14z"/>
<path d="M2517 743 c-12 -12 -8 -21 13 -28 11 -3 20 -12 20 -19 0 -7 7 -13 15
-13 8 0 15 3 15 7 0 12 -56 60 -63 53z"/>
<path d="M1621 732 c0 -7 -5 -11 -10 -8 -17 11 -64 -74 -67 -120 -1 -24 2 -44
7 -44 5 0 9 5 9 11 0 5 11 -1 24 -15 13 -15 27 -26 32 -26 15 0 69 48 63 55
-4 3 -16 -3 -27 -15 -27 -29 -53 -22 -74 19 -15 30 -15 37 -2 63 15 29 42 36
62 16 9 -9 12 -5 12 21 0 18 -4 30 -9 26 -5 -3 -12 3 -14 12 -3 10 -5 12 -6 5z"/>
<path d="M2584 660 c0 -11 4 -20 9 -20 5 0 6 -7 3 -16 -3 -9 -2 -12 5 -9 5 4
17 1 25 -6 28 -23 27 0 -2 35 -34 41 -40 43 -40 16z"/>
<path d="M1590 639 c-9 -16 -8 -26 5 -45 19 -30 20 -30 22 -2 2 17 0 19 -6 9
-7 -11 -10 -10 -13 5 -3 10 2 27 10 37 9 10 11 17 4 17 -6 0 -16 -9 -22 -21z"/>
<path d="M1419 608 c7 -10 10 -18 6 -18 -4 0 -1 -8 6 -17 8 -10 9 -14 2 -10
-6 4 -14 3 -18 -3 -3 -5 1 -10 11 -10 11 0 15 -6 11 -20 -3 -11 0 -23 5 -27 7
-4 4 -11 -7 -20 -18 -12 -18 -13 3 -13 30 0 28 -14 -5 -40 l-28 -22 28 7 c33
9 36 -9 11 -58 l-17 -32 23 20 23 20 -8 -25 c-4 -14 -10 -31 -12 -37 -3 -8 3
-13 16 -13 15 0 21 6 21 23 0 15 -3 18 -9 9 -5 -8 -8 8 -9 40 -1 102 -3 121
-9 131 -3 5 -7 26 -9 46 -2 26 -1 32 6 21 9 -13 10 -13 10 1 0 16 -29 61 -30
45 0 -5 -8 -2 -17 5 -16 13 -17 12 -4 -3z"/>
<path d="M2723 593 c15 -16 27 -34 27 -40 0 -7 4 -14 8 -17 4 -2 8 11 9 31 0
20 -3 30 -7 23 -5 -9 -9 -9 -14 -1 -4 6 -17 16 -29 22 -19 10 -18 7 6 -18z"/>
<path d="M2650 590 c-8 -5 -11 -12 -7 -17 5 -4 13 -1 18 7 9 12 10 12 5 -2 -3
-11 4 -27 19 -42 14 -14 25 -30 25 -36 0 -5 6 -10 14 -10 8 0 16 -5 18 -12 2
-6 9 -9 16 -7 7 3 3 15 -14 34 -14 17 -22 23 -19 15 4 -8 -4 -2 -18 15 -14 16
-23 33 -21 36 8 13 -22 28 -36 19z"/>
<path d="M2786 571 c-3 -5 0 -12 6 -14 10 -4 10 -8 1 -14 -8 -6 -6 -15 8 -32
11 -13 22 -21 25 -19 3 3 -2 13 -12 22 -12 12 -13 20 -5 30 8 10 8 16 -3 25
-9 7 -17 8 -20 2z"/>
<path d="M1550 455 c0 -22 3 -24 19 -16 10 6 21 7 25 4 3 -3 6 -1 6 6 0 8 -7
11 -15 7 -9 -3 -15 0 -15 9 0 8 -4 15 -10 15 -5 0 -10 -11 -10 -25z"/>
<path d="M387 419 c-15 -11 -25 -25 -21 -30 3 -5 -2 -9 -11 -9 -9 0 -15 -5
-13 -12 6 -18 28 -21 28 -4 0 9 5 16 11 16 5 0 8 4 5 9 -3 5 3 11 14 14 11 3
20 12 20 21 0 20 1 20 -33 -5z"/>
<path d="M462 402 c-57 -64 -92 -114 -86 -124 3 -5 -4 -12 -15 -15 -16 -4 -20
-11 -16 -24 4 -13 1 -19 -8 -19 -8 0 -17 -14 -21 -32 -3 -17 -9 -28 -13 -25
-3 4 -16 -12 -29 -36 -33 -60 -45 -89 -40 -94 7 -7 36 28 30 38 -3 5 1 12 9
15 9 3 18 15 21 27 3 12 17 34 31 49 14 15 25 32 25 38 0 14 46 87 62 97 7 4
13 15 13 23 0 17 42 21 63 6 7 -5 15 -7 18 -4 2 3 -8 12 -24 19 -24 12 -28 18
-21 37 5 12 13 22 18 22 6 0 15 9 21 20 17 32 -2 23 -38 -18z"/>
<path d="M1554 405 c-3 -8 -3 -18 0 -24 4 -5 2 -12 -4 -16 -13 -8 -13 -25 0
-25 6 0 10 7 10 15 0 9 10 20 23 25 21 8 21 11 -5 14 -7 1 -12 7 -10 14 3 17
-7 15 -14 -3z"/>
<path d="M1613 344 c0 -10 7 -14 19 -11 10 3 18 2 18 -2 0 -3 9 -12 20 -19 27
-16 26 2 -2 28 -26 24 -55 26 -55 4z"/>
<path d="M317 320 c-18 -29 -16 -50 4 -50 5 0 9 11 9 24 0 13 6 26 13 29 8 3
9 8 2 16 -8 8 -16 2 -28 -19z"/>
<path d="M1570 334 c0 -10 -6 -13 -18 -10 -12 4 -19 1 -19 -8 0 -9 4 -13 9
-10 4 3 7 -7 7 -23 -1 -17 -3 -21 -6 -10 -6 21 -23 23 -23 2 0 -9 10 -20 23
-25 12 -5 16 -9 10 -9 -7 -1 -13 -6 -13 -12 0 -5 5 -7 10 -4 6 3 10 -1 10 -10
0 -18 38 -35 78 -35 35 0 84 51 66 68 -9 8 -14 5 -18 -14 -14 -55 -95 -54
-116 1 -10 27 -5 51 17 77 8 9 12 22 8 27 -9 16 -25 13 -25 -5z"/>
<path d="M2905 334 c11 -8 19 -18 17 -22 -2 -3 1 -8 6 -10 16 -5 8 28 -9 39
-24 15 -35 9 -14 -7z"/>
<path d="M2854 307 c2 -6 8 -23 13 -37 6 -14 9 -28 6 -32 -2 -5 3 -8 11 -8 9
0 16 9 16 21 0 11 -4 17 -10 14 -5 -3 -10 -2 -10 4 0 5 4 11 9 13 5 2 -1 11
-14 20 -14 11 -22 13 -21 5z"/>
<path d="M1607 293 c-11 -11 -8 -65 3 -58 6 4 8 11 4 16 -3 6 2 19 12 30 14
16 14 19 2 19 -8 0 -18 -3 -21 -7z"/>
<path d="M1530 181 c0 -11 4 -22 9 -25 5 -4 7 3 4 15 -5 19 -4 20 15 8 15 -10
18 -16 9 -21 -9 -6 -9 -8 0 -8 23 0 23 19 1 34 -29 21 -38 20 -38 -3z"/>
<path d="M2918 195 c-7 -8 20 -65 32 -65 4 0 10 -9 13 -21 4 -13 10 -18 17
-14 9 6 9 9 0 15 -7 4 -9 13 -6 19 4 6 0 11 -9 11 -9 0 -13 5 -10 10 3 6 2 10
-3 10 -5 0 -13 9 -18 21 -5 11 -12 17 -16 14z"/>
<path d="M174 105 c2 -30 -4 -45 -22 -61 -12 -12 -19 -25 -14 -28 14 -8 44 30
48 59 1 14 8 34 16 43 12 15 11 16 -4 4 -14 -11 -17 -10 -21 5 -2 10 -4 0 -3
-22z"/>
<path d="M1541 73 c1 -10 5 -31 9 -48 6 -26 7 -24 7 18 0 26 -3 47 -8 47 -5 0
-8 -8 -8 -17z"/>
<path d="M1476 35 c-3 -8 -15 -15 -27 -15 -33 0 -16 -11 22 -15 19 -2 29 -1
23 1 -7 3 -10 14 -7 24 6 23 -2 27 -11 5z"/>
</g>
</svg>
